<svg width="64" height="64" viewBox="0 0 64 64" fill="none" xmlns="http://www.w3.org/2000/svg">
<g id="ride_ic_damaged_car_light">
<path id="Vector" d="M62.3025 35.475L54.25 38.25L58.5 41.5L53.775 41L53 45.5L52.25 44.5L51.75 36.75L58.75 31.25L62.3025 35.475ZM40 30L54.25 31.25L49.5 26L51 23.75L46.5 26.25L48 19.75L45.5 23.25L43.75 17.5L40 30ZM33.6325 12.585L30.1525 21.1525L32.825 29.5L33.1575 21.1525L38.5 21.5L34.5 19.1625L37.84 12.8175L33.6325 12.585ZM10.75 34.5L6 38L8.5 47L8 38.5L10.065 37.705L12.5 38.75V42.5L14.25 38.25L12.055 36.94L14.5 36L12.25 28H11C10.1145 28.0003 9.23221 28.1077 8.3725 28.32L10.75 34.5Z" fill="url(#paint0_linear_1388_2473)"/>
<path id="Vector_2" d="M61.79 29.6575L59.5975 28.5625L55.0975 16.5425C54.5928 15.2095 53.695 14.0613 52.5231 13.2501C51.3511 12.4389 49.9603 12.0029 48.535 12H34.3325C32.6927 12.0032 31.0708 12.3413 29.5662 12.9934C28.0616 13.6455 26.706 14.598 25.5825 15.7925L14.2875 27.84L15.4525 32H23.345L28.5 34.17L33.6675 32H43.8375L52.0875 34.0825L57.8575 32.16L60.01 33.235V48H57.485C56.8645 46.2455 55.7154 44.7265 54.1958 43.6521C52.6762 42.5777 50.861 42.0008 49 42.0008C47.139 42.0008 45.3238 42.5777 43.8042 43.6521C42.2846 44.7265 41.1355 46.2455 40.515 48H27.485C26.8645 46.2455 25.7154 44.7265 24.1958 43.6521C22.6762 42.5777 20.861 42.0008 19 42.0008C17.139 42.0008 15.3238 42.5777 13.8042 43.6521C12.2846 44.7265 11.1355 46.2455 10.515 48H4V39C4.00018 37.6906 4.36762 36.4075 5.06056 35.2965C5.7535 34.1855 6.74417 33.2911 7.92 32.715L6.4825 28.965C4.55122 29.8369 2.91242 31.2474 1.76262 33.0273C0.612818 34.8072 0.000818885 36.881 0 39V48C0 49.0609 0.421424 50.0783 1.17157 50.8284C1.92172 51.5786 2.93913 52 4 52H10.0575C10.307 54.1969 11.3566 56.2252 13.0059 57.6978C14.6552 59.1704 16.7889 59.9843 19 59.9843C21.2111 59.9843 23.3448 59.1704 24.9941 57.6978C26.6434 56.2252 27.693 54.1969 27.9425 52H40.0575C40.307 54.1969 41.3566 56.2252 43.0059 57.6978C44.6552 59.1704 46.7889 59.9843 49 59.9843C51.2111 59.9843 53.3448 59.1704 54.9941 57.6978C56.6434 56.2252 57.693 54.1969 57.9425 52H60C61.0609 52 62.0783 51.5786 62.8284 50.8284C63.5786 50.0783 64 49.0609 64 48V33.235C64.0024 32.4918 63.7966 31.7628 63.406 31.1306C63.0155 30.4983 62.4556 29.988 61.79 29.6575ZM38.4375 28H32.8625L28.5 29.83L24.155 28H19.6175L28.5 18.5275C29.2493 17.7319 30.153 17.0974 31.1559 16.6629C32.1587 16.2283 33.2396 16.0027 34.3325 16H41.4375L38.4375 28ZM51.9225 29.9175L44.335 28H42.5625L45.5625 16H48.535C49.1454 16.0023 49.7407 16.1897 50.2424 16.5374C50.7441 16.8851 51.1286 17.3768 51.345 17.9475L55.3975 28.75L51.9225 29.9175ZM19 56C18.0111 56 17.0444 55.7068 16.2222 55.1573C15.3999 54.6079 14.759 53.827 14.3806 52.9134C14.0022 51.9998 13.9031 50.9945 14.0961 50.0246C14.289 49.0546 14.7652 48.1637 15.4645 47.4645C16.1637 46.7652 17.0546 46.289 18.0246 46.0961C18.9945 45.9031 19.9998 46.0022 20.9134 46.3806C21.8271 46.759 22.6079 47.3999 23.1573 48.2221C23.7068 49.0444 24 50.0111 24 51C24 52.3261 23.4732 53.5979 22.5355 54.5355C21.5979 55.4732 20.3261 56 19 56ZM49 56C48.0111 56 47.0444 55.7068 46.2222 55.1573C45.3999 54.6079 44.759 53.827 44.3806 52.9134C44.0022 51.9998 43.9031 50.9945 44.0961 50.0246C44.289 49.0546 44.7652 48.1637 45.4645 47.4645C46.1637 46.7652 47.0546 46.289 48.0246 46.0961C48.9945 45.9031 49.9998 46.0022 50.9134 46.3806C51.8271 46.759 52.6079 47.3999 53.1573 48.2221C53.7068 49.0444 54 50.0111 54 51C54 52.3261 53.4732 53.5979 52.5355 54.5355C51.5979 55.4732 50.3261 56 49 56Z" fill="url(#paint1_linear_1388_2473)"/>
</g>
<defs>
<linearGradient id="paint0_linear_1388_2473" x1="6" y1="47" x2="36.6287" y2="-3.10814" gradientUnits="userSpaceOnUse">
<stop stop-color="#F81E42"/>
<stop offset="1" stop-color="#FA6981"/>
</linearGradient>
<linearGradient id="paint1_linear_1388_2473" x1="0" y1="12" x2="20.7877" y2="74.3836" gradientUnits="userSpaceOnUse">
<stop offset="0.272135" stop-color="#34263B"/>
<stop offset="0.658079" stop-color="#13172C"/>
</linearGradient>
</defs>
</svg>
