<svg width="64" height="64" viewBox="0 0 64 64" fill="none" xmlns="http://www.w3.org/2000/svg">
<g id="ride_ic_emergency_light">
<path id="Vector" d="M52.915 11.915L50.0875 9.08752L55.0875 4.08752L57.915 6.91502L52.915 11.915ZM62.0125 23.25H54.0125V27.25H62.0125V23.25ZM13.915 9.08502L8.91502 4.08502L6.08752 6.91252L11.0875 11.9125L13.915 9.08502ZM12.915 41.4125L10.0875 38.585L5.08752 43.585L7.91502 46.4125L12.915 41.4125ZM58.915 43.585L53.915 38.585L51.0875 41.4125L56.0875 46.4125L58.915 43.585ZM10.02 23.25H2.02002V27.25H10.02V23.25Z" fill="url(#paint0_linear_1388_2462)"/>
<path id="Vector_2" d="M53.9651 48.535L48.9651 43.535L46.8426 41.4125L48.9651 39.29L49.1976 39.0575L46.8176 18.83C46.2251 13.795 41.9551 9.9975 36.8851 9.9975H27.1126C22.0426 9.9975 17.7726 13.795 17.1801 18.83L14.8001 39.0575L15.0326 39.29L17.1551 41.4125L15.0326 43.535L10.0326 48.535L7.91256 50.655L7.08756 49.83L5.49756 60H58.5001L56.9101 49.83L56.0851 50.655L53.9651 48.535ZM21.1551 19.3C21.5101 16.28 24.0726 14 27.1151 14H36.8876C39.9301 14 42.4901 16.2775 42.8476 19.3L45.7526 44H18.2501L21.1551 19.3ZM10.1726 56L11.4226 48H52.5776L53.8276 56H10.1726ZM27.4601 24.6775L23.4976 24.14L23.9351 20.925C24.2776 18.4025 26.4551 16.5 29.0026 16.5H31.0026V20.5H29.0026C28.4476 20.5 27.9751 20.915 27.9001 21.4625L27.4626 24.6775H27.4601Z" fill="url(#paint1_linear_1388_2462)"/>
</g>
<defs>
<linearGradient id="paint0_linear_1388_2462" x1="2.02002" y1="46.4125" x2="41.8973" y2="-10.1072" gradientUnits="userSpaceOnUse">
<stop stop-color="#F81E42"/>
<stop offset="1" stop-color="#FA6981"/>
</linearGradient>
<linearGradient id="paint1_linear_1388_2462" x1="5.49756" y1="9.9975" x2="31.2531" y2="71.4243" gradientUnits="userSpaceOnUse">
<stop offset="0.272135" stop-color="#34263B"/>
<stop offset="0.658079" stop-color="#13172C"/>
</linearGradient>
</defs>
</svg>
