<svg width="64" height="64" viewBox="0 0 64 64" fill="none" xmlns="http://www.w3.org/2000/svg">
<g id="ride_ic_crash_light">
<path id="Vector" d="M40.75 16.75L44 10L37 13.75L33 7.50004L30.5 15.25L23 16L29 20.25L25.75 26.5L32.5 23L37.75 28L38.5 20.25L45 22.75L40.75 16.75ZM28.885 13.5575L24.8 6.98504L22.5825 9.00504L28.7475 13.6825L28.885 13.5575ZM40.68 6.95504L37.82 6.04504L37.7575 10.88L37.935 10.935L40.68 6.95254V6.95504Z" fill="url(#paint0_linear_1388_2468)"/>
<path id="Vector_2" d="M60.76 29.7025L59.7925 29.115L56.6775 21.525C55.9375 19.72 54.1975 18.5525 52.245 18.5525H45.7025L47.4475 21.0175L46.6425 22.0525H52.245C52.77 22.0525 53.24 22.3675 53.44 22.855L55.6675 28.2875H42.2L41.0125 25.395L40.7325 28.29L40.29 32.855L40.4525 33.25H40.2525L40.14 34.4225L38.91 33.25H9.5425L12.61 25.775C12.9325 24.99 13.6875 24.4825 14.5375 24.4825H23.4175L25.1325 21.185L24.845 20.9825H14.5375C12.2625 20.9825 10.235 22.3425 9.3725 24.4475L5.39 34.1525L4.0425 34.97C1.7025 36.39 0.25 38.9725 0.25 41.7075V50.33C0.25 52.0675 1.6075 53.49 3.3175 53.6025V55.4975C3.3175 57.84 5.225 59.7475 7.5675 59.7475H11C13.3425 59.7475 15.25 57.84 15.25 55.4975V53.615H34.75V55.4975C34.75 57.84 36.6575 59.7475 39 59.7475H42.4325C44.775 59.7475 46.6825 57.84 46.6825 55.4975V53.6025C48.3925 53.49 49.75 52.0675 49.75 50.33V45.165H51.82V47.2825C51.82 48.5225 52.83 49.5325 54.07 49.5325H58.7625C60.0025 49.5325 61.0125 48.5225 61.0125 47.2825V45.165C62.6325 45.1475 63.945 43.825 63.945 42.2V35.3575C63.945 33.06 62.725 30.8925 60.7625 29.7025H60.76ZM11.75 55.5C11.75 55.9125 11.4125 56.25 11 56.25H7.5675C7.155 56.25 6.8175 55.9125 6.8175 55.5V53.6175H11.75V55.5ZM43.1825 55.5C43.1825 55.9125 42.845 56.25 42.4325 56.25H39C38.5875 56.25 38.25 55.9125 38.25 55.5V53.6175H43.1825V55.5ZM46.25 50.1175H3.75V44.2C5.335 44.2 7.845 44.2 10.6425 44.2C11.1725 44.2 11.54 43.6625 11.3425 43.1725C11.2975 43.0625 11.2525 42.9575 11.205 42.855C10.135 40.5 7.7375 39.025 5.145 39.025H4.6725C4.995 38.6075 5.395 38.2425 5.855 37.9625L7.8525 36.75H42.1425L44.14 37.9625C44.6025 38.2425 45 38.605 45.3225 39.025H44.85C42.2575 39.025 39.86 40.4975 38.79 42.855C38.7425 42.9575 38.6975 43.065 38.6525 43.1725C38.455 43.6625 38.8225 44.2 39.3525 44.2C42.15 44.2 44.66 44.2 46.245 44.2V50.1175H46.25ZM60.445 41.67H49.75C49.735 38.95 48.2875 36.385 45.96 34.9725L44.6125 34.155L43.64 31.7875H57.4475L58.9475 32.6975C59.1925 32.845 59.41 33.0275 59.6025 33.235C57.585 33.2725 55.7275 34.43 54.8925 36.27L54.8825 36.29C54.6625 36.7825 55.035 37.3375 55.5725 37.3375C57.4975 37.3375 59.235 37.3375 60.445 37.3375V41.67Z" fill="url(#paint1_linear_1388_2468)"/>
</g>
<defs>
<linearGradient id="paint0_linear_1388_2468" x1="22.5825" y1="28" x2="44.5327" y2="5.58741" gradientUnits="userSpaceOnUse">
<stop stop-color="#F81E42"/>
<stop offset="1" stop-color="#FA6981"/>
</linearGradient>
<linearGradient id="paint1_linear_1388_2468" x1="0.25" y1="18.5525" x2="16.0488" y2="73.5151" gradientUnits="userSpaceOnUse">
<stop offset="0.272135" stop-color="#34263B"/>
<stop offset="0.658079" stop-color="#13172C"/>
</linearGradient>
</defs>
</svg>
