<svg width="357" height="864" viewBox="0 0 357 864" fill="none" xmlns="http://www.w3.org/2000/svg">
<circle cx="228" cy="56.4927" r="34" stroke="#37CAFC" stroke-linecap="round"/>
<circle cx="231" cy="40.4927" r="3" stroke="#37CAFC" stroke-linecap="round"/>
<circle cx="246" cy="53.4927" r="7" stroke="#37CAFC" stroke-linecap="round"/>
<path d="M227.5 18.9927V1.99268" stroke="#37CAFC"/>
<path d="M227.5 109.993V92.9927" stroke="#37CAFC"/>
<path d="M259.632 37.6594L274.266 29.2104" stroke="#37CAFC"/>
<path d="M180.735 83.2105L195.369 74.7615" stroke="#37CAFC"/>
<path d="M164 55.9927L190.5 55.9927" stroke="#37CAFC" stroke-dasharray="18 18"/>
<path d="M259.632 74.7615L274.266 83.2104" stroke="#37CAFC"/>
<path d="M180.735 29.2103L195.369 37.6593" stroke="#37CAFC"/>
<path d="M264.5 55.9927L291 55.9927" stroke="#37CAFC" stroke-dasharray="18 18"/>
<path d="M195.75 1.00003L209 23.9497" stroke="#37CAFC" stroke-dasharray="18 18"/>
<path d="M246 88.0357L259.25 110.985" stroke="#37CAFC" stroke-dasharray="18 18"/>
<path d="M259.25 1.00003L246 23.9497" stroke="#37CAFC" stroke-dasharray="18 18"/>
<path d="M209 88.0357L195.75 110.985" stroke="#37CAFC" stroke-dasharray="18 18"/>
<g clip-path="url(#clip0_2980_62471)">
<path d="M0 157H357V1124H0V157Z" fill="#F2FBFE"/>
<g clip-path="url(#clip1_2980_62471)">
<path d="M288.72 517.18C280.99 509.93 267.17 499.96 267.06 488.13C267.02 483.87 269.17 480.14 272.11 477.2C285.62 463.69 345.6 402.59 345.6 402.59C336.82 406.78 328.03 410.96 319.25 415.15C300.44 424.12 281.62 433.09 262.81 442.06C240.99 452.47 219.17 462.88 197.34 473.27C187.35 478.03 176.99 482.18 167.37 487.67C159.89 491.94 150.91 498.08 153.04 508.03C154.5 514.86 159.78 519.79 158.08 527.23C155.64 537.93 134.99 549.75 102.71 567.96L0.0302734 628.47V863.5H33.0303C59.3403 837.09 274.8 601.58 287.88 578.85C306.18 547.03 302.52 530.14 288.72 517.18Z" fill="#E1F7FE"/>
<path d="M0.629883 624.55C18.4599 613.71 31.5599 606.55 49.3699 595.67C69.3099 583.49 89.2499 571.31 109.19 559.13C119.16 553.04 129.13 546.95 139.1 540.86C145.95 536.67 154.69 532.07 153.64 522.58C153.18 518.39 150.79 514.71 148.96 510.91C144.48 501.62 148.24 494.51 156.06 488.79C161.92 484.5 168.34 481.06 174.8 477.77C188.49 470.81 202.68 464.89 216.89 459.08C234.44 451.9 251.51 443.65 268.96 436.32C295.04 425.37 320.85 413.51 346.73 401.99C340.12 407.9 333.5 413.81 326.89 419.73C315.81 429.64 304.73 439.55 293.65 449.46C288.87 453.74 284.17 458.16 279.41 462.43C272.7 468.43 264.87 473.72 263.05 483.23C260.55 496.32 270.75 504.55 279.11 512.67C304.67 537.48 319.86 564.33 298.72 596.92C277.64 629.42 251.08 657.86 224.74 686.09C156.64 759.05 88.7599 832.13 21.2499 905.63C20.4199 906.53 19.5999 907.43 18.7699 908.32" stroke="#37CAFC" stroke-miterlimit="10" stroke-linecap="round" stroke-linejoin="round"/>
</g>
<path d="M346.72 402H315.72C314.72 402 312.72 401 312.72 398C312.72 395 309.72 395 309.72 395H289.72V346C289.72 335 279.72 334 279.72 334H274.72V229L234.72 259C218.72 272 219.72 297 219.72 297V409H195.72V398H143.72V340C143.72 315 122.72 314 122.72 314H105.72V410L95.7202 422C88.7202 430 89.7202 444 89.7202 444V478H71.7202V471C71.7202 455 56.7202 456 56.7202 456H12.7002" stroke="#37CAFC" stroke-miterlimit="10" stroke-linecap="round" stroke-linejoin="round"/>
<path d="M228.72 454.001C228.12 454.271 225.89 450.301 225.72 449.951C224.31 447.171 223.56 443.511 223.73 440.391C223.87 437.841 224.89 435.151 226.96 433.551C229 431.971 232.5 431.521 234.72 433.001C234.56 432.891 234.87 431.521 234.91 431.371C235.41 428.811 236.95 426.701 239.61 426.101C242.55 425.431 246.75 427.391 246.83 430.791C248.16 427.731 251.21 425.881 254.53 425.961C256.44 426.011 258.32 426.711 259.79 427.931C260.46 425.311 261.94 422.751 264.73 422.011C266.64 421.531 268.87 422.021 269.74 423.961C269.06 422.171 268.39 420.351 268.08 418.461C267.69 416.131 267.87 413.721 269.07 411.641C271.47 407.491 277.12 406.031 280.73 409.531C282.29 411.041 283.3 413.071 284.18 415.021C284.75 416.281 285.26 417.571 285.69 418.891C285.77 418.671 285.85 418.371 285.95 418.131C286.59 416.481 287.58 414.451 289.19 413.561C290.68 412.731 292.45 413.051 293.63 414.261C293.98 414.621 294.74 415.461 294.74 416.021C294.74 414.031 295.81 411.971 298.05 412.021C299.04 412.041 299.96 412.571 300.64 413.271C300.91 413.551 301.83 414.561 301.74 415.021C302.04 413.501 302.67 411.821 303.9 410.801C305.39 409.571 308.14 409.791 308.75 411.851C309.52 411.001 310.3 410.061 311.3 409.481C312.71 408.671 314.74 409.121 314.74 411.031C314.74 411.031 315.74 409.031 318.74 409.031C321.74 409.031 323.74 412.031 323.74 412.031C323.74 412.031 228.79 453.971 228.72 454.001Z" fill="#37CAFC"/>
<path d="M277.58 431.369C277.58 431.369 278.58 417.369 276.58 414.369" stroke="white" stroke-miterlimit="10" stroke-linecap="round" stroke-linejoin="round"/>
<path d="M275.58 420.369L277.8 423.209" stroke="white" stroke-miterlimit="10" stroke-linecap="round" stroke-linejoin="round"/>
<path d="M277.82 427.479L279.58 425.369" stroke="white" stroke-miterlimit="10" stroke-linecap="round" stroke-linejoin="round"/>
<path d="M259.78 430.32C259.78 430.32 260.77 434.4 258.9 439.68" stroke="white" stroke-miterlimit="10" stroke-linecap="round" stroke-linejoin="round"/>
<path d="M261.44 433L260.03 435.46" stroke="white" stroke-miterlimit="10" stroke-linecap="round" stroke-linejoin="round"/>
<path d="M257.85 434.93L259.4 437.47" stroke="white" stroke-miterlimit="10" stroke-linecap="round" stroke-linejoin="round"/>
<path d="M236.03 442.18C236.361 442.18 236.63 441.912 236.63 441.58C236.63 441.249 236.361 440.98 236.03 440.98C235.698 440.98 235.43 441.249 235.43 441.58C235.43 441.912 235.698 442.18 236.03 442.18Z" fill="white"/>
<path d="M238.9 441.68C239.231 441.68 239.5 441.412 239.5 441.08C239.5 440.749 239.231 440.48 238.9 440.48C238.568 440.48 238.3 440.749 238.3 441.08C238.3 441.412 238.568 441.68 238.9 441.68Z" fill="white"/>
<path d="M238.88 445.69C239.212 445.69 239.48 445.422 239.48 445.09C239.48 444.759 239.212 444.49 238.88 444.49C238.549 444.49 238.28 444.759 238.28 445.09C238.28 445.422 238.549 445.69 238.88 445.69Z" fill="white"/>
<path d="M0.0302734 554.26C0.0302734 554.26 3.97027 534.18 16.5503 534.55C29.1303 534.93 31.5703 558.95 28.5603 572.65C28.5603 572.65 34.9403 563.45 40.5703 564.39C46.2003 565.33 45.6403 576.03 45.6403 576.03C45.6403 576.03 47.3303 572.28 49.7703 572.09C52.2103 571.9 53.9003 574.53 53.9003 574.53C53.9003 574.53 56.9003 541.49 69.6703 541.49C69.6703 541.49 77.5503 540.93 76.8003 555.19C76.8503 554.23 77.7603 552.94 78.2903 552.21C79.2803 550.84 80.9903 549.92 82.6603 549.69C83.7403 549.54 86.0703 549.96 86.1403 551.46C86.0403 549.57 86.3403 547.74 86.7803 545.88C87.2503 543.87 88.0903 541.67 89.5803 540.2C91.3903 538.41 94.1603 538.81 95.5703 540.93C95.2403 540.44 97.0003 538.36 97.2803 538.08C98.8303 536.51 101.08 535.8 103.17 536.68C104.58 537.27 105.72 538.38 106.67 539.58C109.86 543.56 116.8 554.27 110.21 558.39L0.0302734 625.77V554.26Z" fill="#37CAFC"/>
<path d="M64.1299 582.97C64.1299 582.97 66.3799 576.96 67.8799 563.92" stroke="white" stroke-miterlimit="10" stroke-linecap="round" stroke-linejoin="round"/>
<path d="M70.8003 569.369L66.5703 573.869" stroke="white" stroke-miterlimit="10" stroke-linecap="round" stroke-linejoin="round"/>
<path d="M63.9404 575.84L65.2604 578.19" stroke="white" stroke-miterlimit="10" stroke-linecap="round" stroke-linejoin="round"/>
<path d="M20.4001 574.811C20.4001 574.811 23.4001 593.771 17.1201 611.691" stroke="white" stroke-miterlimit="10" stroke-linecap="round" stroke-linejoin="round"/>
<path d="M15.9805 585.51L20.7705 592.92" stroke="white" stroke-miterlimit="10" stroke-linecap="round" stroke-linejoin="round"/>
<path d="M25.5602 595.08L19.7402 602.21" stroke="white" stroke-miterlimit="10" stroke-linecap="round" stroke-linejoin="round"/>
<path d="M324.3 807.87C324.3 807.87 328.61 803.76 328.61 795.76C328.61 787.75 319.58 782.83 313.21 786.93C313.21 786.93 311.77 777.9 302.33 779.13C302.33 779.13 308.69 770.3 308.69 758.81C308.69 750.62 305.59 742.1 298.99 736.94C288.64 728.84 274.31 731.51 264.55 739.13C253.39 747.84 248.14 762.26 245.25 775.64C245.25 775.64 235.6 767.02 230.06 786.31C230.24 785.68 225.64 783.45 225.13 783.29C220.37 781.79 216.99 785.33 214.65 788.95C212.55 786.32 210.69 783.96 207.2 783.07C193.99 779.71 186.39 798.76 182.83 807.86H324.3V807.87Z" fill="#37CAFC"/>
<path d="M252.34 790.3C252.34 790.3 252.06 784.19 257.89 785.44C257.89 785.44 260.39 768.23 271.07 768.23C281.76 768.23 276.2 786.271 276.2 786.271C276.2 786.271 276.76 777.94 284.53 777.94C292.3 777.94 291.47 786.961 290.91 790.711" stroke="white" stroke-miterlimit="10" stroke-linecap="round" stroke-linejoin="round"/>
<path d="M330.53 808.18H178.47" stroke="#37CAFC" stroke-miterlimit="10" stroke-linecap="round" stroke-linejoin="round"/>
</g>
<path d="M23 74C23 74 50.2942 74 50.3455 74C49.7644 74 49.132 69.7963 49.0465 69.4C48.2262 65.403 49.3542 59.9071 53.1996 57.8225C57.4382 55.5138 61.6084 58.391 64.0182 61.9401C63.6251 61.3715 63.7447 59.7865 63.7105 59.1318C63.4371 54.997 63.8473 49.8284 66.5135 46.4689C69.9829 42.0928 77.2978 41.6621 80.7502 46.2966C83.2967 49.725 84.1171 54.3423 84.5273 58.4944C84.3905 57.1678 85.7236 54.997 86.3731 53.946C87.86 51.5685 90.2015 49.949 93.0556 49.8284C96.2004 49.7078 99.7382 51.5513 99.9091 55.0314C99.7211 50.8794 102.08 45.4524 106.028 43.7123C110.847 41.6104 115.667 45.125 117 49.8629" stroke="#37CAFC" stroke-miterlimit="10" stroke-linecap="round" stroke-linejoin="round"/>
<path d="M238 178H255.273C254.539 178 253.437 172.736 253.308 172.086C252.898 169.855 252.811 167.515 253.286 165.306C254.625 159.197 261.167 155.753 266.068 160.67C265.442 160.042 265.313 157.767 265.161 156.966C264.6 154.02 264.341 150.944 264.686 147.954C265.744 138.726 275.072 133.267 283.773 135.498C295.194 138.423 299.059 152.677 300.614 162.836C299.664 156.706 305.666 150.337 311.776 152.395C316.138 153.868 317.778 158.612 317.886 162.836C317.886 162.836 320.045 156.338 326.523 156.338C330.301 156.338 332.87 159.11 333 162.836" stroke="#37CAFC" stroke-miterlimit="10" stroke-linecap="round" stroke-linejoin="round"/>
<defs>
<clipPath id="clip0_2980_62471">
<rect width="357" height="967" fill="white" transform="translate(0 157)"/>
</clipPath>
<clipPath id="clip1_2980_62471">
<rect width="347" height="463" fill="white" transform="translate(0 402)"/>
</clipPath>
</defs>
</svg>
