<svg width="338" height="612" viewBox="0 0 338 612" fill="none" xmlns="http://www.w3.org/2000/svg">
<path d="M-18 120C-18 120 37.4416 52.1963 60.2811 32.8922C83.1205 13.5881 96.2779 1 109.435 1C122.593 1 139.467 11.1428 156.584 25.6941C173.7 40.2453 189.105 54.125 189.105 64.0267C189.105 73.9285 181.654 62.0464 190.834 53.1434C200.015 44.2405 211.426 31.1357 230.79 31.1357C250.155 31.1357 268.032 48.7006 306 81.5744" stroke="#37CAFC" stroke-linecap="round" stroke-linejoin="round"/>
<path d="M53.001 540.2H110.601V494.84H77.481L71.5482 507.958L61.9002 529.285C60.777 531.776 59.913 534.569 58.545 536.931C57.9959 537.92 57.1924 538.745 56.2177 539.32C55.243 539.894 54.1325 540.198 53.001 540.2Z" fill="#E1F7FE"/>
<path d="M205.67 540.2H114.446V494.84H187.209L201.148 534.224C201.148 534.224 202.804 540.2 205.67 540.2Z" fill="#E1F7FE"/>
<path d="M30.3062 550.885C30.3062 550.885 29.5862 537.925 43.9862 537.925H51.9062C53.0604 537.84 54.173 537.458 55.1367 536.818C56.1003 536.177 56.8823 535.298 57.407 534.267C59.7686 529.285 61.9286 524.029 64.1318 518.974C67.2278 511.774 70.4102 504.733 73.5206 497.59C76.631 490.448 81.5846 481.045 90.8006 481.045H174.868C178.77 481.045 182.802 480.411 185.553 483.925C187.943 486.934 188.749 491.125 189.988 494.739L193.285 504.358L200.298 524.763C201.234 527.47 202.329 530.192 203.178 532.942C203.178 532.942 204.618 537.997 207.498 537.997H226.218C226.218 537.997 231.978 537.997 231.978 543.757V574.544C231.978 578.993 232.569 583.486 230.121 587.504C229.166 589.253 227.773 590.724 226.08 591.774C224.386 592.824 222.449 593.417 220.458 593.494H47.6582C47.6582 593.494 30.3782 593.494 30.3782 576.214L30.3062 550.885Z" stroke="#37CAFC" stroke-linecap="round" stroke-linejoin="round"/>
<path d="M31.4438 583.284H231.301" stroke="#37CAFC" stroke-linecap="round" stroke-linejoin="round"/>
<path d="M51.9062 537.924H109.506V492.564H76.3862" stroke="#37CAFC" stroke-linecap="round" stroke-linejoin="round"/>
<path d="M207.254 537.924H116.015V492.564H188.778" stroke="#37CAFC" stroke-linecap="round" stroke-linejoin="round"/>
<path d="M70.0071 611.365C79.829 611.365 87.7911 603.403 87.7911 593.581C87.7911 583.759 79.829 575.797 70.0071 575.797C60.1853 575.797 52.2231 583.759 52.2231 593.581C52.2231 603.403 60.1853 611.365 70.0071 611.365Z" fill="#37CAFC"/>
<path d="M179.217 611.365C189.038 611.365 197.001 603.403 197.001 593.581C197.001 583.759 189.038 575.797 179.217 575.797C169.395 575.797 161.433 583.759 161.433 593.581C161.433 603.403 169.395 611.365 179.217 611.365Z" fill="#37CAFC"/>
<path d="M70.007 600.334C73.7369 600.334 76.7606 597.311 76.7606 593.581C76.7606 589.851 73.7369 586.827 70.007 586.827C66.2771 586.827 63.2534 589.851 63.2534 593.581C63.2534 597.311 66.2771 600.334 70.007 600.334Z" fill="#E1F7FE"/>
<path d="M179.216 600.334C182.946 600.334 185.97 597.311 185.97 593.581C185.97 589.851 182.946 586.827 179.216 586.827C175.487 586.827 172.463 589.851 172.463 593.581C172.463 597.311 175.487 600.334 179.216 600.334Z" fill="#E1F7FE"/>
<path d="M231.503 549.487C230.338 548.998 229.081 548.762 227.817 548.796C225.513 548.796 219.537 549.415 219.537 558.459C219.537 567.502 227.587 569.878 231.503 569.878" stroke="#37CAFC" stroke-linecap="round" stroke-linejoin="round"/>
<path d="M98.7495 548.12H109.449" stroke="#37CAFC" stroke-linecap="round" stroke-linejoin="round"/>
<path d="M-1 611.292H133.893" stroke="#37CAFC" stroke-linecap="round" stroke-linejoin="round"/>
<path d="M159.331 611.292H317.5" stroke="#37CAFC" stroke-linecap="round" stroke-linejoin="round"/>
<path d="M277.566 407.477C270.953 406.25 264.551 404.077 258.558 401.026C252.164 398.016 245.857 394.2 241.782 388.253C239.713 385.342 238.574 381.873 238.513 378.303C238.513 378.303 238.383 370.527 245.194 370.527C252.006 370.527 251.055 375.164 249.284 374.213C247.386 373.264 245.737 371.882 244.472 370.179C243.206 368.475 242.358 366.498 241.998 364.407C241.479 360.288 244.878 356.372 249.198 358.546C246.779 356.65 244.745 354.309 243.207 351.648C242.498 350.477 242.176 349.111 242.286 347.746C242.326 347.312 242.462 346.891 242.683 346.515C242.904 346.139 243.206 345.816 243.566 345.57C243.926 345.324 244.337 345.16 244.767 345.091C245.198 345.021 245.639 345.048 246.058 345.168C246.244 345.205 246.427 345.253 246.606 345.312C244.806 344.736 243.063 341.741 242.286 340.258C240.154 336.312 238.93 329.717 241.796 325.858C244.993 321.538 250.868 323.568 253.849 326.938C252.255 324.514 251.445 321.659 251.53 318.759C251.429 316.328 251.813 313.902 252.661 311.622C253.509 309.343 254.804 307.255 256.47 305.482C260.401 301.666 266.55 300.082 271.921 300.5C279.826 301.133 287.502 306.101 288.711 314.396C288.711 314.597 288.826 314.727 289.028 314.712C289.345 313.93 289.715 313.169 290.137 312.437C291.029 310.659 292.304 309.1 293.871 307.874C295.438 306.648 297.257 305.785 299.198 305.347C301.139 304.909 303.153 304.907 305.094 305.341C307.036 305.776 308.857 306.635 310.426 307.858C315.582 312.178 317.425 319.205 317.526 325.671C317.612 331.632 316.618 341.064 310.686 344.391C314.041 342.504 318.001 343.7 320.766 346.176C326.526 351.389 327.116 360.389 324.452 367.272C322.278 372.874 318.044 376.128 312.774 378.792C314.487 377.943 317.713 379.066 318.922 380.304C319.705 381.144 320.208 382.206 320.362 383.343C321.054 387.893 317.641 391.767 314.242 394.258C312.483 395.542 310.585 396.624 308.583 397.484C306.827 398.382 304.957 399.041 303.025 399.442C305.473 399.816 304.465 402.898 303.298 403.949C297.769 408.759 287.746 408.543 280.906 407.952C279.668 407.736 278.617 407.607 277.566 407.477Z" fill="#E1F7FE"/>
<path d="M274.053 403.057C267.44 401.829 261.039 399.657 255.045 396.606C248.651 393.596 242.344 389.78 238.269 383.819C236.199 380.914 235.059 377.449 235 373.883C235 373.883 234.871 366.107 241.682 366.107C248.493 366.107 247.543 370.743 245.771 369.793C243.883 368.833 242.247 367.442 240.994 365.734C239.741 364.026 238.906 362.047 238.557 359.958C238.039 355.839 241.437 351.923 245.757 354.097C243.334 352.205 241.3 349.863 239.767 347.199C239.057 346.028 238.735 344.662 238.845 343.297C238.885 342.863 239.021 342.442 239.242 342.066C239.463 341.69 239.765 341.367 240.125 341.121C240.486 340.875 240.896 340.711 241.327 340.642C241.758 340.573 242.198 340.599 242.618 340.719C242.803 340.756 242.986 340.804 243.165 340.863C241.365 340.287 239.623 337.292 238.845 335.809C236.714 331.863 235.49 325.268 238.355 321.409C241.552 317.089 247.427 319.134 250.408 322.503C248.814 320.08 248.004 317.224 248.09 314.324C247.988 311.894 248.372 309.468 249.221 307.188C250.069 304.908 251.363 302.82 253.029 301.047C256.96 297.231 263.109 295.647 268.48 296.065C276.386 296.699 284.061 301.652 285.271 309.961C285.271 310.163 285.386 310.292 285.587 310.278C285.904 309.495 286.275 308.735 286.696 308.003C287.588 306.224 288.864 304.666 290.43 303.44C291.997 302.214 293.817 301.351 295.758 300.913C297.698 300.475 299.712 300.473 301.654 300.907C303.595 301.341 305.416 302.201 306.986 303.423C312.141 307.743 313.984 314.771 314.085 321.236C314.171 327.198 313.178 336.63 307.245 339.956C310.6 338.07 314.56 339.265 317.325 341.742C323.085 346.955 323.675 355.955 321.011 362.838C318.837 368.439 314.603 371.694 309.333 374.358C311.047 373.508 314.272 374.631 315.482 375.87C316.264 376.71 316.767 377.771 316.922 378.908C317.613 383.459 314.2 387.332 310.802 389.823C309.039 391.103 307.141 392.184 305.143 393.049C303.386 393.948 301.516 394.606 299.584 395.007C302.032 395.382 301.024 398.463 299.858 399.515C294.328 404.324 284.306 404.108 277.466 403.518C276.155 403.345 275.104 403.158 274.053 403.057Z" stroke="#57CBFC" stroke-linecap="round" stroke-linejoin="round"/>
<path d="M275.522 338.271L272.8 491.617" stroke="#57CBFC" stroke-linecap="round" stroke-linejoin="round"/>
<path d="M274.931 375.913C278.327 374.002 281.476 371.681 284.305 369.001" stroke="#57CBFC" stroke-linecap="round" stroke-linejoin="round"/>
<path d="M272.152 372.528C272.573 372.528 272.915 372.187 272.915 371.765C272.915 371.344 272.573 371.002 272.152 371.002C271.73 371.002 271.389 371.344 271.389 371.765C271.389 372.187 271.73 372.528 272.152 372.528Z" fill="#57CBFC"/>
<path d="M267.976 375.884C268.397 375.884 268.739 375.542 268.739 375.121C268.739 374.699 268.397 374.357 267.976 374.357C267.554 374.357 267.212 374.699 267.212 375.121C267.212 375.542 267.554 375.884 267.976 375.884Z" fill="#57CBFC"/>
<path d="M272.786 379.426C273.207 379.426 273.549 379.084 273.549 378.663C273.549 378.241 273.207 377.899 272.786 377.899C272.364 377.899 272.022 378.241 272.022 378.663C272.022 379.084 272.364 379.426 272.786 379.426Z" fill="#57CBFC"/>
<path d="M252.77 497.808C252.77 497.808 259.005 477.648 268.912 479.088C268.912 479.088 276.242 480.528 269.589 490.767C269.589 490.767 272.469 483.84 275.018 484.791C277.566 485.741 275.709 488.319 275.709 488.319C275.983 487.732 276.181 487.112 276.299 486.475C276.876 484.904 277.549 483.37 278.315 481.882C282.333 474.048 290.757 466.042 300.362 467.755C302.124 468.016 303.722 468.932 304.838 470.32C305.954 471.708 306.505 473.467 306.381 475.243C306.237 480.643 302.982 485.827 300.39 490.363C301.867 487.615 304.043 485.305 306.698 483.667C309.016 482.357 313.221 481.119 315.467 483.163C318.347 485.799 315.654 490.363 314.243 493.071C315.352 490.983 318.664 487.44 321.342 488.995C321.65 489.206 321.9 489.49 322.068 489.822C322.237 490.154 322.319 490.524 322.307 490.896C322.303 491.555 322.166 492.206 321.904 492.811C322.398 491.068 323.466 489.543 324.935 488.482C326.403 487.421 328.187 486.887 329.997 486.965C337.053 486.965 337.73 495.375 337.053 497.823L252.77 497.808Z" fill="#57CBFC"/>
</svg>
